<svg xmlns="http://www.w3.org/2000/svg" width="100" height="100" viewBox="0, 0, 100, 100"><path d="M71.66 66.768c-.002.027-.003.053-.003.08V82.28c-.078.905-.835 1.617-1.763 1.617-.014 0-.022.004-.032.005h-15.25-.008c-.02 0-.04.002-.057.003h-9.525c-1.265 0-2.29-1.025-2.29-2.29 0-1.265 1.025-2.292 2.29-2.292l.014.002h19.72c.016-.003.026-.007.042-.007 1.198 0 2.18-.92 2.28-2.093V57.282v-.016c0-1.266 1.026-2.29 2.29-2.29s2.293 1.024 2.293 2.29v9.502zm-39.356 4.397c0-1.263 1.024-2.29 2.292-2.29H54.33c.016 0 .025-.005.04-.005 1.2 0 2.184-.92 2.282-2.093V46.833v-.015c0-1.265 1.027-2.29 2.292-2.29 1.264 0 2.288 1.025 2.288 2.29v9.5c0 .03-.003.056-.003.082v15.433c-.077.905-.836 1.617-1.765 1.617-.012 0-.02.004-.03.006H44.187l-.012-.002c-.018 0-.036.002-.055.004h-9.524c-1.268 0-2.292-1.026-2.292-2.293zm-1.745-26.14c-1.265 0-2.29-1.026-2.29-2.29v-9.498c0-.03.004-.06.004-.09V17.714c.076-.906.834-1.618 1.76-1.618.01 0 .01 0 .016-.002h24.86c1.264 0 2.29 1.026 2.29 2.29 0 1.265-1.026 2.29-2.29 2.29H33.732c1.424.002 1.413.007 1.397.007-1.198 0-2.18.92-2.282 2.093v19.959c0 1.265-1.025 2.29-2.29 2.29zM67.593 28.78c0 1.265-1.027 2.29-2.293 2.29H45.567c-.016.002-.024.006-.043.006-1.197 0-2.18.92-2.28 2.094v19.958c0 1.265-1.025 2.29-2.287 2.29-1.267 0-2.292-1.025-2.292-2.29v-9.496c0-.03.003-.06.003-.092V28.11c.078-.907.836-1.62 1.764-1.62.007 0 .012 0 .014-.002H65.3c1.267 0 2.294 1.027 2.294 2.292zM52.498 6.737H27.62c-6.523 0-11.816 5.218-11.957 11.706l-.014.013V61.41c0 17.592 14.263 31.853 31.853 31.853H72.82l.022-.023c6.376-.244 11.475-5.46 11.507-11.89V38.59c0-17.593-14.26-31.853-31.852-31.853" fill="#FFF"/></svg>