<svg xmlns="http://www.w3.org/2000/svg" width="49" height="61" viewBox="0 0 49 61"><path fill="#5D2972" fill-rule="evenodd" d="M40.507 60.62H22.79c-6.087 0-11.81-2.35-16.115-6.614C2.37 49.74 0 44.07 0 38.036V8.592l.03-.03C.188 6.33 1.154 4.25 2.78 2.67 4.42 1.074 6.56.155 8.845.06l.008-.01H26.19c6.088 0 11.812 2.35 16.116 6.615 4.304 4.266 6.675 9.937 6.675 15.97V51.76l-.005.01c-.158 4.64-3.775 8.404-8.425 8.805l-.043.046zM2.193 9.44v28.596c0 11.255 9.24 20.41 20.597 20.41h16.818l.397-.014c3.785-.143 6.763-3.193 6.782-6.942V22.635c0-11.255-9.24-20.41-20.596-20.41H9.227c-1.848.004-3.59.713-4.91 1.996C2.992 5.508 2.24 7.227 2.2 9.063l-.01.377zm9.057 18.08c-1.162 0-2.107-.936-2.107-2.088v-6.437l.003-.04V8.524l.002-.023c.074-.883.826-1.576 1.717-1.59l.04-.002h16.928c1.162 0 2.108.937 2.108 2.09 0 1.15-.945 2.088-2.107 2.088h-.99l-12.48.004c-.513 0-.95.392-1.005.895v13.445c0 1.152-.946 2.09-2.108 2.09zm-1.01-8.48v6.392c0 .553.453 1.002 1.01 1.002.558 0 1.01-.45 1.01-1.002l.003-13.517c.093-1.07 1.015-1.91 2.1-1.91l12.48-.003h.99c.558 0 1.01-.45 1.01-1.003 0-.554-.452-1.003-1.01-1.003H10.893c-.33 0-.614.252-.65.576v10.38c0 .034-.002.06-.004.086zm8.09 15.496c-1.162 0-2.11-.937-2.11-2.09l.002-6.434.002-.036V15.54l.002-.025c.073-.842.727-1.49 1.556-1.58l.016-.01h17.114c1.163 0 2.11.936 2.11 2.09 0 1.15-.947 2.088-2.11 2.088H21.51c-.02.002-.042.004-.068.004-.514 0-.95.392-1.004.895v13.445c0 1.152-.945 2.09-2.107 2.09zM17.32 26.05v6.397c0 .552.454 1.002 1.013 1.002.558 0 1.01-.45 1.01-1.003l.003-13.516c.09-1.058.99-1.89 2.06-1.91h.004l.063-.003h13.442c.558 0 1.012-.45 1.012-1.003 0-.553-.454-1.003-1.012-1.003H18.168l-.195.003c-.337 0-.614.246-.653.576v10.378c0 .033 0 .058-.002.083zm3.192 20.66H14c-1.163 0-2.11-.937-2.11-2.09 0-1.152.947-2.09 2.11-2.09h13.396c.02 0 .045-.003.07-.003.516 0 .953-.39 1.006-.894V28.198c0-1.162.946-2.1 2.11-2.1 1.16 0 2.106.938 2.106 2.09v16.906l-.002.024c-.078.89-.805 1.564-1.7 1.587l-.03.005H20.51zm-6.5-3.092c-.57 0-1.023.45-1.023 1.002 0 .554.454 1.004 1.012 1.004h6.458l.066-.003 10.347.002c.02-.002.043-.004.067-.004.332 0 .616-.25.654-.575V34.655v-6.467c0-.553-.452-1.002-1.01-1.002-.557 0-1.012.45-1.012 1.002V41.68l-.002.023c-.088 1.057-.987 1.888-2.055 1.91l-.02.003-.05.002H14.01zm13.577 10.144H21.1c-1.162 0-2.107-.938-2.107-2.09s.945-2.09 2.108-2.09l13.388.002c.024-.004.05-.006.08-.006.514 0 .952-.39 1.006-.894v-13.41-.034c0-1.153.945-2.09 2.108-2.09 1.162 0 2.108.937 2.108 2.09v6.444l-.003.03v10.43l-.002.022c-.073.876-.815 1.565-1.7 1.59l-.068.004h-10.38l-.05.002zm-6.525-3.092c-.54.02-.972.462-.972 1.002 0 .553.453 1.003 1.01 1.003h6.465l.06-.002h10.347c.022-.003.044-.004.066-.004.333 0 .615-.252.652-.575v-10.38c0-.034.002-.062.004-.088V35.24c0-.554-.454-1.004-1.012-1.004-.55 0-1 .44-1.012.983v13.536c-.092 1.052-.985 1.88-2.045 1.908l-.03.006H21.062z"/></svg>